<?xml version="1.0" standalone="no"?>
<!DOCTYPE svg PUBLIC "-//W3C//DTD SVG 20010904//EN"
 "http://www.w3.org/TR/2001/REC-SVG-20010904/DTD/svg10.dtd">
<svg version="1.0" xmlns="http://www.w3.org/2000/svg"
 width="64.000000pt" height="64.000000pt" viewBox="0 0 64.000000 64.000000"
 preserveAspectRatio="xMidYMid meet">
<metadata>
Created by potrace 1.14, written by Peter Selinger 2001-2017
</metadata>
<g transform="translate(0.000000,64.000000) scale(0.100000,-0.100000)"
fill="#000000" stroke="none">
<path d="M367 566 c3 -34 11 -76 19 -93 11 -28 11 -33 -2 -33 -8 0 -22 9 -31
20 -10 11 -32 23 -50 26 -34 6 -40 16 -47 82 -4 35 5 39 48 22 17 -6 26 -6 26
1 0 11 -10 15 -61 23 l-36 6 9 -47 c18 -92 4 -175 -33 -199 -6 -3 -3 5 6 19
23 36 27 107 6 130 -9 11 -15 34 -14 55 l2 37 -10 -35 c-10 -31 -12 -33 -24
-17 -16 22 -20 21 -54 -4 -22 -16 -28 -29 -29 -60 -2 -45 -19 -82 -59 -129
l-27 -33 31 5 32 4 -25 -41 c-31 -53 -30 -78 3 -134 l27 -46 10 27 10 27 11
-22 c6 -12 19 -21 28 -19 13 2 17 -4 17 -27 0 -16 -6 -32 -12 -34 -8 -4 -7 -6
4 -6 11 -1 19 10 23 31 l7 32 19 -35 c10 -18 18 -29 19 -24 0 16 -44 115 -52
115 -4 0 -5 -8 -1 -17 5 -15 4 -16 -8 -5 -15 14 -18 102 -10 285 3 72 6 87 18
83 8 -3 19 -6 24 -6 5 0 9 -34 9 -76 0 -41 -4 -73 -9 -70 -4 3 -13 -6 -20 -20
-6 -14 -7 -23 -2 -20 5 3 11 -20 13 -52 3 -40 14 -78 37 -121 22 -43 31 -73
29 -92 -3 -16 -1 -29 4 -29 8 0 13 30 9 65 -1 15 1 17 10 8 6 -6 10 -31 8 -57
-5 -57 7 -60 21 -5 l11 41 17 -33 c18 -37 62 -54 62 -24 0 14 3 14 23 1 13 -8
30 -11 42 -7 19 7 18 9 -5 22 -14 7 -31 12 -37 11 -7 -2 -13 7 -13 18 0 12 -4
18 -10 15 -5 -3 -10 -17 -10 -30 0 -23 -13 -27 -37 -12 -7 5 -13 22 -13 39 0
30 -1 30 -19 14 -17 -16 -19 -16 -24 6 -4 14 0 29 10 40 26 29 7 33 -21 5
l-25 -25 -19 31 c-26 46 -30 59 -36 124 -5 56 -5 55 17 -29 13 -49 28 -93 35
-100 17 -17 15 10 -3 42 -20 36 -19 60 4 60 12 0 23 -11 29 -29 9 -26 80 -89
180 -159 26 -18 35 -20 51 -10 10 6 17 17 14 24 -4 12 34 40 49 36 4 -1 15 13
24 30 l17 32 -24 -17 c-13 -10 -46 -28 -74 -41 -58 -27 -67 -25 -153 44 -47
37 -89 101 -77 119 2 4 21 8 41 9 60 2 103 21 110 47 l6 23 26 -29 c43 -46
162 -58 170 -16 2 11 -1 15 -11 11 -9 -3 -17 3 -21 18 -9 36 -7 48 8 48 12 0
13 6 5 29 -12 34 -84 118 -74 86 3 -11 9 -33 12 -50 3 -16 12 -42 19 -57 26
-52 18 -60 -30 -27 -52 35 -94 82 -101 112 -11 56 -14 58 -11 10 5 -84 -30
-61 -41 26 -5 43 -3 54 12 65 17 12 16 13 -7 18 -25 5 -25 4 -21 -56z m-147
-95 c0 -28 -5 -53 -10 -56 -7 -4 -9 14 -8 49 4 69 18 74 18 7z m-109 -4 c-13
-13 -15 1 -4 30 7 17 8 17 11 -1 2 -10 -1 -23 -7 -29z m202 -4 c-7 -2 -19 -2
-25 0 -7 3 -2 5 12 5 14 0 19 -2 13 -5z m-188 -79 c-5 -46 -9 -53 -21 -43 -19
15 -18 53 3 92 21 40 27 23 18 -49z m275 -4 c0 -10 -6 -23 -13 -29 -18 -14
-77 -26 -77 -15 0 5 -12 10 -26 11 -26 1 -44 17 -44 40 0 8 7 8 31 0 26 -10
36 -9 67 10 39 23 62 17 62 -17z m170 -42 c0 -17 -63 0 -85 23 -14 15 -16 23
-7 26 6 3 9 10 6 15 -4 6 14 -3 39 -21 26 -18 47 -37 47 -43z m-490 49 c0 -7
-9 -18 -20 -25 -20 -12 -21 -12 -4 13 18 28 24 31 24 12z m40 -94 c0 -7 -9
-30 -20 -50 -11 -21 -20 -45 -20 -55 0 -29 -20 -31 -21 -1 -2 49 2 77 16 106
8 15 9 27 4 27 -6 0 -7 5 -4 11 8 13 45 -18 45 -38z m97 5 c-3 -8 -6 -5 -6 6
-1 11 2 17 5 13 3 -3 4 -12 1 -19z m-93 -113 c5 -22 4 -26 -4 -15 -5 8 -10 24
-10 34 0 26 6 18 14 -19z"/>
<path d="M385 290 c10 -11 20 -18 23 -15 7 6 -18 35 -31 35 -5 0 -2 -9 8 -20z"/>
<path d="M447 240 c-27 -5 -51 -11 -54 -14 -13 -12 98 -3 114 10 21 16 14 16
-60 4z"/>
<path d="M176 48 c3 -5 10 -6 15 -3 13 9 11 12 -6 12 -8 0 -12 -4 -9 -9z"/>
</g>
</svg>
