<?xml version="1.0" standalone="no"?>
<!DOCTYPE svg PUBLIC "-//W3C//DTD SVG 20010904//EN"
 "http://www.w3.org/TR/2001/REC-SVG-20010904/DTD/svg10.dtd">
<svg version="1.0" xmlns="http://www.w3.org/2000/svg"
 width="231.000000pt" height="231.000000pt" viewBox="0 0 231.000000 231.000000"
 preserveAspectRatio="xMidYMid meet">
<metadata>
Created by potrace 1.14, written by Peter Selinger 2001-2017
</metadata>
<g transform="translate(0.000000,231.000000) scale(0.100000,-0.100000)"
fill="#000000" stroke="none">
<path d="M985 2199 c-163 -21 -360 -97 -507 -196 -73 -49 -218 -183 -218 -201
0 -7 -4 -12 -9 -12 -12 0 -92 -122 -129 -195 -36 -73 -79 -207 -89 -278 -10
-67 -10 -247 0 -314 20 -140 108 -342 198 -454 79 -99 246 -249 277 -249 7 0
12 -4 12 -10 0 -5 6 -10 14 -10 8 0 16 -4 18 -8 9 -21 216 -105 317 -128 102
-24 117 -26 261 -29 180 -4 336 25 495 92 47 20 195 102 211 118 6 5 24 19 39
30 54 37 181 172 228 241 60 90 119 218 148 324 33 123 33 346 0 474 -13 50
-27 97 -31 105 -4 9 -20 45 -36 80 -94 210 -299 413 -519 515 -81 37 -101 45
-170 65 -157 45 -351 61 -510 40z"/>
</g>
</svg>
